<?xml version="1.0" standalone="no"?>
<!DOCTYPE svg PUBLIC "-//W3C//DTD SVG 20010904//EN"
 "http://www.w3.org/TR/2001/REC-SVG-20010904/DTD/svg10.dtd">
<svg version="1.0" xmlns="http://www.w3.org/2000/svg"
 width="3840.000000pt" height="2160.000000pt" viewBox="0 0 3840.000000 2160.000000"
 preserveAspectRatio="xMidYMid meet">

<g transform="translate(0.000000,2160.000000) scale(0.100000,-0.100000)"
fill="#000000" stroke="none">
<path d="M7338 13823 c-9 -2 -19 -12 -22 -21 -3 -9 -251 -1110 -551 -2447
-519 -2311 -544 -2430 -528 -2446 61 -56 1331 -1053 1352 -1060 40 -14 1837
-7 1851 7 9 9 166 928 281 1637 l11 67 299 0 299 0 0 -29 c0 -16 -18 -144 -40
-286 -22 -142 -40 -274 -40 -295 0 -35 28 -70 450 -556 252 -290 465 -527 483
-536 30 -17 213 -18 3422 -18 1865 0 3400 3 3412 6 12 3 24 16 27 28 3 12 8
205 12 429 l7 407 119 0 c65 0 118 -1 119 -2 0 -2 18 -191 39 -421 23 -257 42
-423 49 -430 15 -15 1795 -23 1834 -8 16 6 26 20 31 43 4 18 34 269 67 558 48
426 58 541 53 608 l-7 82 152 0 151 0 0 -77 c0 -170 30 -1166 36 -1188 3 -13
15 -26 27 -29 37 -10 1794 -7 1820 3 20 8 43 61 163 390 76 209 140 377 142
372 1 -4 13 -173 26 -375 15 -242 27 -371 35 -379 15 -15 1805 -23 1843 -8 18
7 93 122 282 435 l258 426 379 0 c208 0 379 -1 379 -2 1 -32 100 -828 105
-840 3 -9 16 -19 28 -22 12 -3 1235 -6 2717 -6 2565 0 2697 1 2730 18 32 16
1298 949 1398 1029 23 19 42 43 42 54 0 33 -330 1393 -341 1404 -7 7 -344 11
-1014 13 l-1005 2 -5 23 c-21 90 -155 763 -155 778 0 18 10 19 163 19 89 0
173 3 185 7 27 7 1302 1365 1302 1386 0 6 -67 288 -148 626 -126 522 -151 615
-167 622 -25 10 -5534 10 -5558 1 -19 -8 -689 -1423 -702 -1484 -10 -43 -57
-136 -62 -121 -2 6 -24 178 -47 383 -25 209 -49 377 -55 383 -8 8 -88 14 -244
17 l-231 5 -42 385 c-22 212 -44 395 -48 406 -4 12 -17 25 -29 28 -29 7 -3605
8 -3634 0 -12 -3 -24 -13 -28 -22 -5 -14 -165 -1187 -165 -1214 0 -5 -277 -8
-615 -8 l-615 0 -1 33 c0 17 -4 286 -9 597 -4 311 -11 575 -15 587 -4 11 -17
24 -28 27 -29 8 -5505 8 -5534 0 -11 -3 -24 -16 -27 -27 -5 -19 -326 -3391
-326 -3425 0 -9 -69 -12 -280 -12 l-280 0 0 29 c0 15 45 457 100 982 77 734
97 962 90 989 -5 19 -142 354 -304 745 -206 497 -300 711 -313 716 -19 8
-5526 10 -5555 2z m10419 -299 c12 -3 24 -11 26 -18 3 -7 1 -102 -5 -212 -8
-172 -108 -3877 -108 -4007 l0 -47 -1792 2 -1793 3 2 135 c1 74 34 500 72 945
116 1337 198 2286 236 2727 35 411 39 441 58 466 7 9 348 12 1646 12 900 0
1646 -3 1658 -6z m1792 -8 c9 -11 12 -120 11 -413 -1 -382 -4 -466 -20 -488
-4 -5 -6 -18 -5 -27 2 -10 0 -18 -3 -18 -4 0 -13 -10 -21 -22 -13 -20 -13 -22
1 -10 12 10 17 10 26 -1 9 -10 6 -17 -8 -30 -19 -16 -18 -53 1 -41 5 3 9 1 9
-4 0 -6 -7 -13 -16 -16 -8 -3 -12 -2 -9 4 3 5 -4 19 -17 32 -17 17 -23 19 -26
7 -3 -8 -13 -26 -23 -41 -26 -36 -24 -41 10 -35 25 5 34 1 50 -21 11 -15 21
-22 21 -15 0 6 -4 15 -10 18 -5 3 -10 13 -10 21 0 14 2 14 15 0 16 -16 21 -96
6 -96 -5 0 -12 6 -14 13 -3 7 -6 5 -6 -5 -1 -11 -9 -18 -22 -18 l-20 0 20 28
20 28 -35 1 c-36 1 -40 -3 -23 -27 9 -13 10 -12 5 3 -3 9 -1 17 4 17 15 0 12
-40 -2 -41 -10 0 -10 -2 0 -6 6 -2 10 -8 8 -12 -6 -9 31 -7 40 2 11 10 26 9
20 -2 -3 -5 0 -11 8 -14 15 -6 15 -11 25 -557 l6 -365 250 0 250 0 0 429 0
429 23 2 c13 1 30 -5 38 -12 12 -12 14 -12 14 2 0 12 8 16 33 13 24 -2 32 -8
31 -21 -2 -14 1 -15 12 -6 8 6 11 16 7 23 -4 6 5 3 20 -6 14 -10 30 -18 34
-18 4 0 1 4 -7 10 -20 12 -9 21 17 14 12 -4 24 -13 26 -23 3 -11 5 -9 6 6 1
20 5 22 54 19 98 -6 93 -5 77 -16 -8 -5 -19 -5 -25 0 -7 6 -11 1 -12 -13 -2
-17 0 -19 7 -7 7 10 10 11 10 3 0 -7 5 -13 11 -13 5 0 7 5 3 12 -4 7 -3 8 5 4
6 -4 14 0 17 9 5 12 14 15 31 10 14 -3 22 -2 19 3 -3 5 5 8 17 7 16 -2 21 -8
19 -21 -3 -19 -3 -19 11 0 9 13 21 17 36 13 11 -3 21 -1 21 5 0 16 61 -26 75
-52 8 -14 14 -19 15 -12 0 7 5 10 10 7 6 -3 10 -1 10 4 0 6 -6 11 -13 11 -8 0
-22 9 -32 20 -16 18 -16 20 -2 20 10 0 17 -7 17 -16 0 -12 6 -15 24 -10 14 3
28 1 31 -4 4 -6 13 -2 23 10 22 26 94 30 120 7 15 -14 22 -14 42 -4 48 23 63
16 65 -31 1 -23 -2 -42 -7 -42 -4 0 -3 -8 2 -17 7 -11 16 -167 23 -383 l12
-365 234 2 c129 2 236 5 238 7 2 2 -1 98 -7 212 -20 405 -72 1876 -66 1899 3
13 14 26 24 29 9 3 326 6 703 8 544 2 689 0 701 -10 12 -9 16 -34 16 -100 0
-75 31 -560 62 -970 9 -123 1 -212 -22 -256 -8 -15 -6 -23 8 -34 18 -13 18
-14 -5 -7 -15 5 -21 4 -17 -3 3 -6 2 -13 -4 -17 -5 -3 -9 -16 -9 -28 1 -20 2
-21 6 -2 10 39 43 47 43 9 0 -14 5 -34 10 -45 9 -17 7 -19 -16 -19 -23 0 -25
2 -14 15 11 14 10 14 -12 6 -16 -6 -29 -6 -35 0 -5 5 -15 -5 -25 -26 -13 -29
-13 -35 -2 -35 8 0 14 -6 14 -14 0 -8 6 -16 14 -19 18 -7 15 35 -4 57 -11 14
-9 16 9 16 17 0 21 -6 21 -29 0 -33 17 -51 26 -27 9 24 23 19 19 -6 -3 -12 -1
-26 4 -32 5 -6 12 -26 16 -43 5 -24 3 -33 -7 -33 -9 0 -10 -2 -1 -8 11 -7 19
-103 83 -1032 17 -239 35 -484 41 -545 7 -60 12 -144 13 -185 l1 -75 -248 -3
-247 -2 6 -83 c18 -253 41 -683 37 -689 -2 -5 -346 -8 -763 -8 l-760 0 -4 23
c-3 12 -13 289 -22 615 l-18 592 -90 1 c-89 1 -882 0 -900 -1 -5 0 -5 -263 -1
-615 l7 -615 -766 0 -767 0 7 390 7 390 -251 0 -251 0 -7 38 c-4 20 -2 532 5
1137 7 605 14 1345 17 1645 5 548 8 634 23 659 5 7 24 17 42 21 19 4 338 8
710 9 575 1 678 -1 688 -13z m10506 3 c1118 0 1509 -4 1535 -12 34 -12 36 -15
56 -102 43 -179 164 -722 164 -733 0 -9 -233 -13 -959 -14 l-959 -3 80 -400
c295 -1493 441 -2212 450 -2222 8 -10 225 -13 1011 -15 l1000 -3 90 -383 c49
-211 87 -385 85 -388 -8 -7 -3582 -4 -3589 3 -11 12 -80 384 -204 1108 -263
1533 -478 2779 -513 2978 -28 162 -27 177 24 189 16 4 74 5 129 2 55 -2 775
-4 1600 -5z m-19129 -21 c12 -12 12 -21 0 -58 -8 -25 -31 -146 -51 -270 -19
-124 -45 -288 -58 -365 l-22 -140 -947 0 c-832 0 -949 -2 -962 -15 -13 -12
-92 -390 -170 -812 l-5 -28 107 0 c563 1 1801 -4 1814 -8 18 -4 18 -9 3 -142
-4 -40 -46 -317 -93 -615 l-18 -110 -992 -3 c-546 -1 -992 -5 -992 -10 0 -15
-319 -1675 -323 -1678 -2 -2 -350 -4 -773 -4 l-769 -1 -3 25 c-2 14 11 96 28
183 79 392 861 4008 873 4031 l12 27 825 5 c454 3 1203 4 1664 3 695 -1 841
-4 852 -15z m1752 6 c33 -5 38 -13 23 -42 -5 -9 -16 -34 -25 -54 -8 -21 -21
-38 -26 -38 -6 0 -8 6 -4 13 6 8 3 8 -9 -1 -9 -8 -22 -10 -28 -6 -8 4 -9 3 -5
-4 4 -7 14 -12 22 -12 15 0 20 -25 6 -34 -13 -8 -52 23 -52 40 0 8 -5 12 -10
9 -6 -4 -8 -10 -5 -15 3 -5 -7 -7 -21 -4 -16 3 -31 0 -35 -8 -5 -7 -9 -8 -9
-3 0 6 -10 11 -22 12 -13 0 -18 -1 -11 -4 9 -3 9 -10 1 -29 -6 -13 -9 -26 -6
-29 10 -11 48 -14 48 -4 0 5 -4 9 -10 9 -5 0 -10 7 -10 15 0 16 26 10 48 -11
24 -24 12 -40 -27 -35 -7 2 -11 -4 -9 -11 3 -7 16 -13 29 -13 13 0 24 -6 25
-12 5 -50 5 -49 13 -28 7 18 9 17 26 -10 11 -17 21 -32 23 -35 1 -2 7 2 11 9
6 8 11 9 15 3 3 -6 -1 -17 -9 -25 -10 -10 -11 -17 -4 -19 11 -4 -1 -110 -132
-1177 -16 -134 -32 -280 -35 -325 -5 -71 -45 -409 -154 -1306 -17 -135 -32
-257 -33 -272 l-4 -28 754 0 753 0 0 -24 c0 -34 -70 -749 -73 -753 -2 -1 -695
-4 -1540 -5 l-1537 -3 0 31 c0 59 51 416 304 2119 140 946 267 1801 281 1900
15 99 33 190 40 202 8 12 25 23 37 25 37 5 1350 -2 1386 -8z m11935 8 c26 -7
29 -13 32 -52 5 -52 49 -488 68 -663 9 -81 18 -121 28 -128 7 -5 116 -9 242
-9 125 0 227 -3 227 -8 0 -4 20 -192 45 -417 25 -226 45 -413 45 -417 0 -5
220 -8 489 -8 461 0 489 1 485 18 -7 28 -104 787 -104 811 0 21 2 21 226 21
l226 0 -5 33 c-3 17 -29 202 -58 409 -39 283 -49 381 -40 391 9 11 135 15 673
19 365 4 685 3 712 0 28 -4 52 -13 56 -22 5 -8 15 -71 24 -140 26 -195 96
-627 392 -2427 150 -919 274 -1674 274 -1677 0 -3 -345 -5 -767 -4 l-767 3
-113 815 c-62 448 -112 827 -113 843 l0 27 -250 0 -251 0 6 -32 c3 -18 27
-211 55 -428 27 -217 52 -407 55 -423 l5 -27 -508 2 -507 3 -49 453 -49 452
-246 0 -246 0 3 -45 c2 -25 41 -406 86 -845 l82 -800 -773 0 c-726 0 -772 1
-777 18 -11 36 -48 475 -116 1352 -97 1264 -176 2268 -202 2578 -23 283 -21
311 22 323 35 9 1349 11 1383 1z m-12036 -188 c-3 -3 -12 -4 -19 -1 -8 3 -5 6
6 6 11 1 17 -2 13 -5z m46 -37 c11 -4 16 -3 12 3 -3 6 -1 10 5 10 7 0 10 -19
8 -54 -1 -30 -6 -52 -10 -50 -5 3 -8 0 -8 -5 0 -18 -14 -12 -33 15 -21 28 -32
74 -18 74 16 0 33 -29 27 -46 -4 -10 -1 -14 6 -12 19 6 23 48 5 48 -18 0 -39
24 -30 34 4 3 9 3 12 -2 3 -5 14 -11 24 -15z m8117 -1067 c0 -5 -7 -10 -16
-10 -8 0 -12 5 -9 10 3 6 10 10 16 10 5 0 9 -4 9 -10z m11633 -3344 c-44 -40
-145 -120 -333 -266 -74 -57 -160 -125 -190 -151 -30 -26 -134 -108 -230 -183
l-175 -136 -1563 0 c-931 0 -1562 4 -1560 9 2 5 167 176 368 379 l365 371 484
1 c267 0 487 2 489 5 2 2 539 4 1194 5 l1189 1 -38 -35z m-4183 -6 c3 -1 9 -2
14 -1 24 5 266 8 266 4 0 -8 -72 -92 -255 -295 -99 -110 -187 -210 -195 -221
-8 -12 -54 -66 -103 -119 l-89 -98 -694 0 c-382 0 -694 3 -694 8 0 4 25 39 56
77 31 39 133 168 228 288 286 365 247 325 313 327 32 1 75 3 96 4 21 2 40 -1
43 -6 3 -4 11 -5 17 -1 7 4 59 9 117 10 245 6 306 9 317 16 6 4 14 3 17 -2 6
-10 43 -9 61 0 6 3 94 5 197 5 104 -1 188 1 188 4 0 5 88 5 100 0z m-3290 -99
c0 -12 -161 -314 -254 -476 -25 -44 -46 -84 -46 -88 0 -5 -9 -22 -21 -38 l-20
-29 -688 0 c-378 0 -690 2 -693 5 -6 6 111 284 203 483 16 34 29 65 29 70 0 4
7 16 16 27 14 18 27 20 177 21 89 1 162 3 162 4 0 1 35 3 78 3 45 1 77 -2 77
-8 0 -7 3 -7 8 0 4 6 49 10 102 10 52 0 107 3 122 7 15 3 30 3 33 -1 2 -5 24
-6 47 -4 24 2 104 6 178 7 74 2 142 7 151 11 10 3 20 1 24 -4 3 -6 12 -8 18
-4 7 4 65 8 130 9 65 1 120 4 123 7 7 6 44 -3 44 -12z m-17415 -311 c4 -6 12
-7 18 -3 14 8 44 9 72 1 48 -14 76 -18 71 -10 -3 5 1 9 9 9 8 0 12 -4 9 -9 -3
-4 2 -8 10 -8 9 0 16 4 16 9 0 9 18 8 74 -4 15 -3 34 -1 41 5 7 6 21 7 30 3
14 -5 16 -3 10 7 -5 9 -4 11 4 6 19 -12 61 -14 61 -3 0 6 9 2 19 -7 11 -10 22
-13 25 -8 7 12 55 12 62 1 3 -5 -3 -6 -12 -2 -12 4 -15 3 -10 -5 10 -17 36
-15 36 3 0 9 9 15 25 15 14 0 25 -5 25 -11 0 -10 20 -9 78 4 9 3 25 0 35 -5
12 -6 17 -5 17 4 0 6 7 3 15 -8 13 -16 14 -16 9 -1 -3 9 -1 17 5 17 6 0 11 -6
11 -12 0 -10 3 -9 9 1 6 9 11 10 15 2 5 -7 13 -7 26 2 16 9 24 9 41 -1 12 -8
18 -9 15 -3 -10 15 91 8 106 -7 7 -7 19 -12 28 -12 12 0 12 2 2 9 -10 6 -7 10
12 13 14 3 26 1 26 -5 0 -5 7 -4 15 3 11 9 15 10 15 1 0 -8 8 -10 19 -6 11 3
22 1 26 -5 3 -5 14 -10 23 -9 14 0 13 2 -3 9 -19 8 -19 9 2 9 12 1 25 -3 28
-9 4 -6 14 -4 28 5 14 9 27 11 37 5 8 -5 21 -5 32 1 13 7 18 6 16 -3 -3 -13 5
-14 33 -3 19 7 101 -58 241 -192 53 -51 102 -93 108 -93 6 0 8 -4 5 -10 -4 -7
-247 -10 -696 -10 l-690 0 -22 23 c-13 12 -68 60 -123 106 -163 139 -185 161
-173 183 11 20 25 23 34 8z m310 0 c3 -5 1 -10 -4 -10 -6 0 -11 5 -11 10 0 6
2 10 4 10 3 0 8 -4 11 -10z m3498 -48 c-6 -15 -5 -15 12 2 18 18 19 18 32 0
11 -15 16 -16 22 -6 10 16 62 23 78 10 7 -6 14 -5 18 2 5 8 11 7 23 -2 9 -7
13 -8 9 -2 -5 8 4 11 26 9 17 -2 32 -4 32 -5 0 -6 57 -4 62 3 2 4 11 3 18 -3
7 -6 16 -7 19 -2 2 4 21 6 40 4 22 -3 33 -8 29 -15 -4 -6 -1 -7 8 -1 23 14
102 16 110 2 7 -10 14 -10 36 3 20 11 40 13 73 8 25 -3 63 -4 85 -1 22 2 45 4
50 3 72 -7 153 -7 167 0 10 6 19 5 23 -1 4 -6 11 -8 16 -5 5 4 9 2 9 -3 0 -12
32 -12 48 1 8 6 12 6 12 -2 0 -8 5 -9 19 -1 14 7 22 7 27 -1 5 -8 9 -8 14 1 9
15 73 17 78 2 2 -7 10 -12 18 -12 9 0 13 4 10 8 -3 5 1 9 9 9 8 0 11 -5 8 -11
-3 -6 0 -6 7 1 10 10 19 9 42 -5 23 -14 30 -14 37 -4 5 8 10 13 12 12 2 -1 12
2 23 6 10 4 27 2 38 -5 13 -8 24 -8 38 -1 15 8 20 8 20 -2 0 -9 3 -9 12 0 14
14 32 16 24 3 -4 -5 3 -7 14 -4 11 3 20 0 20 -6 0 -6 8 -11 18 -11 14 0 15 2
2 10 -9 6 -10 10 -3 10 6 0 15 -5 18 -10 4 -7 11 -8 18 -2 14 11 86 10 105 -2
7 -4 21 -4 30 0 25 10 52 12 52 2 0 -13 54 -5 68 12 10 11 11 11 6 1 -5 -10
-3 -13 9 -8 9 3 18 1 20 -6 3 -9 8 -9 18 1 16 15 60 16 57 1 -2 -6 3 -14 11
-17 9 -3 12 0 9 10 -5 12 4 15 39 17 28 1 42 -3 38 -9 -3 -5 -1 -10 4 -10 6 0
11 4 11 8 0 4 9 8 20 9 11 1 20 -2 20 -8 0 -13 57 -11 82 2 13 7 23 7 27 2 5
-9 56 -9 154 -1 21 2 40 0 43 -3 2 -4 18 -6 36 -4 18 1 42 -4 53 -11 23 -16
45 -18 45 -4 0 5 -6 7 -13 4 -8 -3 -14 2 -14 10 0 16 40 13 45 -4 5 -15 22
-12 22 4 0 8 9 12 23 11 12 -1 22 -3 22 -5 0 -1 10 -3 23 -4 12 -2 22 2 22 7
0 5 6 4 13 -2 8 -6 17 -8 20 -5 10 11 31 -17 88 -116 66 -114 71 -127 55 -133
-6 -3 -626 -5 -1377 -6 l-1365 -2 -97 122 c-74 91 -95 124 -87 134 8 10 6 13
-6 11 -9 0 -19 4 -21 10 -2 7 10 9 41 4 34 -5 46 -3 50 7 3 8 10 12 15 8 6 -3
7 -13 4 -23z m1714 -8 c-3 -3 -12 -4 -19 -1 -8 3 -5 6 6 6 11 1 17 -2 13 -5z
m446 -1 c-7 -2 -19 -2 -25 0 -7 3 -2 5 12 5 14 0 19 -2 13 -5z m1037 -14 c0 6
11 11 25 11 16 0 25 -6 25 -15 0 -8 7 -15 16 -15 12 0 14 3 6 13 -8 9 -2 12
26 10 21 -1 38 -2 40 -4 8 -6 29 -4 40 4 7 6 15 7 19 3 3 -3 1 -6 -5 -6 -7 0
-12 -4 -12 -10 0 -5 9 -10 21 -10 13 0 18 4 13 12 -5 8 0 9 14 6 12 -4 20 -2
16 3 -6 11 -2 11 20 3 9 -3 13 -10 10 -15 -3 -5 7 -9 21 -9 18 0 24 4 19 13
-5 7 0 6 11 -3 11 -9 16 -10 11 -2 -5 8 0 12 14 12 12 0 18 -4 15 -10 -3 -5 1
-10 9 -10 9 0 16 4 16 9 0 11 33 9 42 -3 4 -6 13 -4 22 3 9 8 16 11 16 8 0 -3
15 -1 34 3 26 6 36 4 40 -6 3 -8 11 -14 18 -14 9 0 8 3 -2 10 -11 7 -7 10 18
10 17 0 32 -4 32 -10 0 -14 33 -12 49 3 11 10 13 10 7 0 -4 -8 -1 -13 8 -13 9
0 16 4 16 8 0 5 14 9 30 10 17 0 28 -3 26 -7 -3 -4 1 -8 9 -8 8 0 15 5 15 10
0 6 9 2 20 -8 18 -16 20 -16 35 -1 18 17 30 22 21 7 -3 -5 2 -12 11 -15 9 -4
19 -2 22 3 9 14 61 25 61 13 0 -6 9 -10 20 -9 11 1 20 4 20 7 0 3 14 7 30 8
17 1 30 -2 30 -8 0 -13 37 -13 45 -1 6 10 37 7 55 -4 6 -4 18 -1 26 6 12 10
15 10 12 -2 -3 -15 10 -15 51 -3 17 5 22 4 17 -4 -5 -8 0 -12 13 -12 12 0 21
6 22 13 0 10 2 10 6 0 2 -7 9 -13 14 -13 6 0 8 4 5 9 -3 5 7 9 22 10 80 4 141
3 152 -4 7 -4 15 -4 19 1 8 12 41 14 41 4 0 -5 25 -7 55 -5 30 1 52 -1 49 -6
-3 -5 0 -9 5 -9 6 0 11 4 11 9 0 6 9 9 19 8 11 0 17 -5 15 -9 -3 -4 4 -8 16
-8 12 0 19 4 16 9 -3 5 11 7 31 6 21 -2 43 1 50 7 10 8 13 6 13 -5 0 -11 9
-15 30 -15 16 1 28 4 25 7 -2 4 5 7 15 7 10 0 16 -4 14 -8 -3 -4 2 -8 10 -8 9
0 16 8 16 18 1 15 2 15 16 -3 9 -12 18 -16 22 -10 9 13 53 15 45 2 -4 -6 0 -8
10 -4 9 3 18 1 20 -6 3 -9 8 -9 18 0 9 10 16 10 26 1 11 -9 13 -8 11 3 -2 8 3
14 10 13 38 -3 41 -5 35 -21 -4 -11 -3 -14 5 -9 7 4 12 13 12 19 0 13 105 15
117 3 3 -3 12 -1 18 4 14 12 48 2 39 -11 -3 -5 0 -9 5 -9 6 0 11 3 11 8 0 12
124 11 133 -2 6 -7 7 -4 3 7 -4 12 0 17 14 17 14 0 18 -5 13 -17 -6 -16 -5
-16 17 0 31 22 37 21 45 -3 3 -11 11 -20 17 -20 7 0 6 5 -1 14 -18 21 7 26 48
9 18 -8 36 -12 39 -9 3 3 0 6 -6 6 -7 0 -12 5 -12 12 0 6 7 4 18 -5 20 -19 42
-22 42 -8 0 5 29 8 65 7 36 -2 68 1 71 6 3 4 19 1 36 -8 16 -9 27 -11 24 -5
-4 6 0 11 8 11 10 0 13 -6 9 -16 -5 -13 -2 -15 18 -9 13 4 27 13 31 19 5 8 14
7 30 -3 16 -10 23 -10 26 -2 2 6 10 11 18 11 9 0 12 -4 9 -10 -7 -11 8 -14 19
-3 11 12 46 13 46 2 0 -6 8 -9 18 -8 9 1 19 0 22 0 18 -7 69 -7 65 -1 -5 9 21
7 29 -1 7 -6 37 -192 32 -196 -2 -2 -733 -5 -1625 -7 l-1622 -3 -49 105 c-28
58 -50 113 -50 123 0 21 20 30 38 16 8 -6 12 -6 12 2z m4165 -39 c-8 -13 1
-13 24 -1 10 6 23 6 32 0 12 -7 12 -9 0 -9 -8 0 -12 -3 -8 -6 3 -3 11 -2 18 2
22 13 63 14 71 1 6 -9 8 -8 8 3 0 12 15 15 70 15 38 0 70 -4 70 -8 0 -5 13 -6
29 -2 51 11 93 9 102 -6 5 -8 9 -9 9 -2 0 6 8 10 18 8 9 -1 21 0 27 3 20 12
45 8 45 -7 0 -14 2 -14 10 -1 5 8 12 12 15 8 3 -3 22 -2 41 2 18 4 34 4 34 -1
0 -4 7 -6 15 -3 8 4 15 1 15 -5 0 -6 7 -11 15 -11 8 0 15 5 15 11 0 5 -6 7
-12 3 -9 -5 -9 -3 0 7 11 12 15 11 28 -5 8 -11 14 -14 14 -8 0 13 32 17 44 5
11 -11 35 -12 42 -2 10 16 37 10 30 -7 -4 -10 -2 -14 6 -11 7 2 12 10 11 16
-2 6 4 11 12 11 8 0 15 -6 15 -12 0 -10 2 -10 8 -1 9 14 82 13 82 -1 0 -6 5
-4 10 4 8 13 10 12 10 -2 0 -10 7 -18 15 -18 8 0 15 4 15 10 0 14 48 24 63 12
13 -11 66 -13 81 -4 17 10 76 10 76 0 0 -6 7 -7 16 -4 8 3 12 2 9 -4 -3 -6 1
-10 9 -10 8 0 18 5 21 10 9 14 42 12 48 -2 4 -10 8 -10 15 1 18 25 24 -8 17
-94 l-7 -85 -457 0 c-858 -1 -912 -1 -921 5 -11 7 -13 146 -4 183 4 12 13 22
21 22 8 0 11 -4 8 -10z m2627 -44 c4 3 4 12 1 20 -4 10 0 12 11 8 9 -3 16 -9
16 -13 0 -4 7 -8 15 -8 8 0 15 5 15 11 0 6 5 4 10 -4 7 -12 10 -12 10 -1 0 8
6 11 18 6 29 -12 46 -13 65 -3 11 5 17 5 17 -2 0 -5 7 -10 15 -10 8 0 15 4 15
8 0 11 39 12 45 1 4 -5 11 -9 16 -9 6 0 7 5 3 11 -8 13 38 8 48 -5 4 -6 17 -5
33 2 34 16 89 16 79 0 -5 -8 -2 -9 12 -3 10 4 31 7 47 7 47 -2 71 -2 117 -1
70 3 92 0 85 -11 -3 -6 1 -7 9 -4 9 3 13 11 10 18 -3 6 0 4 8 -5 19 -23 48
-31 54 -15 5 14 62 15 84 1 9 -6 11 -4 5 5 -6 10 0 12 24 8 18 -3 31 0 32 6 0
7 2 7 5 0 3 -7 14 -10 24 -7 11 3 20 0 20 -6 0 -6 7 -11 16 -11 8 0 12 5 9 10
-3 6 5 10 19 10 13 0 26 -6 28 -12 3 -9 9 -8 22 4 9 10 23 15 32 11 17 -6 14
-31 -16 -117 l-17 -51 -693 -3 -692 -2 6 22 c3 13 11 51 17 85 11 62 21 73 69
73 13 0 13 -1 0 -10 -8 -5 -10 -10 -4 -10 5 0 16 6 22 12 10 10 15 10 22 -2 7
-12 12 -12 34 -1 21 12 28 12 43 0 9 -8 14 -9 10 -3 -4 7 2 12 18 12 14 0 25
-4 25 -9 0 -5 10 -9 23 -8 12 0 16 3 9 6 -6 2 -9 9 -6 15 4 6 12 2 18 -11 7
-12 15 -19 18 -15z"/>
<path d="M16949 13346 c-2 -2 -31 -6 -64 -10 -352 -36 -425 -50 -425 -77 0 -5
-18 -38 -40 -74 -22 -36 -38 -65 -35 -65 2 0 -12 -24 -31 -52 -19 -29 -34 -58
-34 -64 0 -6 -7 -17 -15 -24 -8 -7 -15 -16 -15 -20 0 -16 35 -16 48 0 10 13
11 11 8 -13 -3 -16 -1 -25 5 -22 5 4 7 10 4 15 -5 8 20 23 40 25 6 0 15 4 22
8 7 4 15 -4 22 -23 5 -17 15 -30 22 -30 6 0 8 -7 4 -17 -5 -14 -3 -15 6 -6 6
6 18 9 27 6 12 -5 14 -1 9 16 -4 16 -2 21 7 18 7 -3 19 -1 26 3 8 5 25 3 42
-6 25 -13 28 -13 28 2 0 19 10 14 14 -8 9 -44 23 -51 74 -34 20 7 26 17 23 38
0 4 5 5 13 2 7 -3 16 3 20 13 3 10 17 36 30 58 14 22 34 56 46 75 20 35 29 49
107 185 23 39 39 73 36 78 -4 8 -17 9 -24 3z m-579 -350 c0 -2 -9 -6 -20 -9
-11 -3 -18 -1 -14 4 5 9 34 13 34 5z m240 -12 c0 -8 -19 -13 -24 -6 -3 5 1 9
9 9 8 0 15 -2 15 -3z m-131 -22 c7 -1 19 3 27 9 19 15 18 1 -1 -18 -8 -8 -13
-19 -10 -24 4 -5 2 -9 -4 -9 -5 0 -13 5 -16 10 -4 6 -10 8 -14 5 -5 -2 -8 7
-8 21 0 14 2 22 6 18 3 -5 12 -10 20 -12z m231 -44 c0 -5 -7 -8 -15 -8 -8 0
-15 -5 -15 -11 0 -5 -4 -7 -10 -4 -19 12 -10 30 15 30 14 0 25 -3 25 -7z"/>
<path d="M15328 13154 c-3 -3 -25 -6 -49 -8 -24 -2 -53 -4 -64 -4 -16 -2 -20
-10 -21 -43 -2 -45 4 -46 12 -3 6 34 3 30 34 38 14 3 19 3 13 0 -18 -8 -16
-34 2 -34 8 0 15 5 15 10 0 6 10 9 23 9 16 -1 18 -2 5 -6 -10 -2 -18 -8 -18
-13 0 -5 -3 -15 -6 -24 -3 -9 -1 -16 6 -16 6 0 9 4 6 8 -8 13 8 31 32 35 20 3
51 32 52 50 0 8 -34 10 -42 1z"/>
<path d="M15072 13121 c-11 -7 -10 -9 3 -14 11 -5 14 -3 9 5 -5 8 -2 9 9 5 10
-3 17 -2 17 3 0 12 -20 13 -38 1z"/>
<path d="M15159 13121 c8 -5 12 -18 8 -30 -3 -12 -1 -19 4 -15 17 10 10 54 -8
54 -14 0 -15 -2 -4 -9z"/>
<path d="M15128 13103 c-10 -2 -18 -9 -18 -14 0 -6 7 -6 19 0 10 6 22 7 26 3
5 -4 5 -1 1 6 -4 6 -8 11 -9 11 -1 -1 -10 -3 -19 -6z"/>
<path d="M15312 13088 c-7 -7 -12 -16 -12 -21 0 -5 7 -1 16 8 9 9 14 18 12 20
-2 3 -10 -1 -16 -7z"/>
<path d="M14877 13079 c13 -12 46 -15 49 -4 2 6 -10 10 -27 11 -16 1 -27 -2
-22 -7z"/>
<path d="M15020 13081 c-24 -7 -24 -8 6 -12 24 -4 31 -2 27 8 -3 7 -6 13 -7
12 0 -1 -12 -4 -26 -8z"/>
<path d="M15074 13070 c0 -10 4 -16 8 -14 4 3 8 2 8 -3 0 -4 11 -9 25 -9 20
-2 23 1 15 11 -6 8 -19 11 -27 8 -10 -4 -14 -2 -10 4 4 6 1 13 -6 16 -7 3 -13
-3 -13 -13z"/>
<path d="M15222 13070 c-17 -27 -15 -35 4 -16 8 9 20 14 25 11 5 -4 9 1 9 9 0
22 -23 20 -38 -4z"/>
<path d="M14886 13048 c3 -4 0 -8 -5 -8 -16 0 -13 -16 5 -35 21 -20 31 -11 13
11 -13 16 -12 16 9 5 15 -8 21 -18 18 -27 -3 -9 -1 -12 4 -9 6 3 10 1 10 -6 0
-7 3 -10 6 -6 4 3 21 0 38 -7 29 -12 35 -11 56 6 19 15 25 17 29 6 10 -31 46
-37 54 -9 2 10 18 25 36 34 30 15 31 15 31 -5 0 -16 -5 -19 -24 -16 -17 4 -23
1 -19 -9 3 -7 10 -10 15 -7 6 4 5 -3 -1 -15 -7 -12 -8 -21 -4 -20 25 4 43 -3
43 -17 0 -14 3 -14 15 -4 16 13 21 35 6 26 -5 -3 -11 2 -13 12 -4 15 0 17 23
14 16 -2 29 -1 29 4 0 11 -50 54 -62 54 -5 0 -6 6 -2 13 6 8 3 8 -9 -1 -9 -8
-22 -10 -29 -6 -7 4 -36 8 -65 7 -29 0 -53 3 -53 7 0 13 -44 20 -51 8 -4 -7
-14 -8 -25 -2 -24 10 -84 12 -78 2z m104 -48 c0 -5 -7 -10 -15 -10 -8 0 -15 5
-15 10 0 6 7 10 15 10 8 0 15 -4 15 -10z"/>
<path d="M15156 13045 c4 -8 8 -15 10 -15 2 0 4 7 4 15 0 8 -4 15 -10 15 -5 0
-7 -7 -4 -15z"/>
<path d="M15280 13040 c-8 -5 -12 -12 -9 -15 4 -3 12 1 19 10 14 17 11 19 -10
5z"/>
<path d="M14854 12964 c-4 -14 -4 -28 0 -31 3 -3 1 -12 -6 -20 -6 -7 -8 -16
-4 -20 3 -3 6 0 6 7 0 9 5 7 15 -6 13 -18 14 -16 11 19 -2 20 0 40 5 43 14 8
11 21 -6 28 -10 3 -17 -3 -21 -20z"/>
<path d="M16379 12943 c-8 -9 -9 -14 -2 -10 6 4 14 1 16 -5 3 -7 6 -3 6 10 1
26 -2 27 -20 5z"/>
<path d="M16416 12947 c3 -10 9 -15 12 -12 3 3 0 11 -7 18 -10 9 -11 8 -5 -6z"/>
<path d="M14980 12928 c0 -9 -5 -18 -12 -20 -7 -3 -5 -7 6 -11 9 -4 15 -3 11
2 -3 5 -1 11 5 13 6 2 6 8 0 18 -8 13 -10 13 -10 -2z"/>
<path d="M16285 12931 c-4 -7 0 -8 11 -4 12 4 15 3 10 -5 -4 -8 3 -16 18 -22
14 -5 26 -14 26 -20 0 -10 -50 8 -60 21 -3 4 -15 -1 -27 -11 -15 -12 -21 -26
-19 -46 3 -32 25 -46 27 -17 1 10 2 23 4 28 1 6 3 15 3 22 1 7 9 10 18 6 15
-5 15 -7 -1 -15 -15 -9 -15 -11 2 -24 10 -7 13 -14 7 -14 -7 0 -14 -6 -17 -14
-4 -11 0 -13 15 -11 31 6 42 -5 21 -21 -17 -12 -17 -13 0 -14 9 0 17 -5 17
-11 0 -8 4 -8 15 1 11 10 18 9 30 -3 8 -9 15 -21 15 -28 0 -10 3 -10 11 -2 9
9 8 16 -5 28 -9 9 -16 21 -16 26 0 5 -9 9 -20 9 -24 0 -25 8 -5 37 8 12 12 28
9 37 -3 9 -1 16 5 16 8 0 8 6 -1 20 -8 12 -15 15 -19 8 -8 -12 -46 5 -41 19 5
12 -25 16 -33 4z"/>
<path d="M15064 12921 c8 -12 -15 -29 -35 -26 -10 2 -16 -3 -15 -11 1 -8 5
-14 9 -14 4 0 14 0 23 0 8 0 13 4 10 9 -3 5 1 14 9 21 17 14 20 30 4 30 -5 0
-8 -4 -5 -9z"/>
<path d="M16541 12913 c-1 -16 5 -23 17 -23 10 0 13 3 6 8 -6 4 -14 14 -17 22
-4 10 -6 8 -6 -7z"/>
<path d="M14896 12904 c-8 -21 -8 -24 5 -24 5 0 7 5 4 10 -3 6 -1 10 4 10 6 0
11 5 11 10 0 16 -17 12 -24 -6z"/>
<path d="M16410 12899 c0 -5 5 -7 10 -4 6 3 10 8 10 11 0 2 -4 4 -10 4 -5 0
-10 -5 -10 -11z"/>
<path d="M15149 12895 c-1 0 -3 -10 -4 -22 -2 -25 13 -26 33 -3 10 11 12 11 6
1 -4 -9 -3 -12 4 -7 25 15 -7 41 -39 31z"/>
<path d="M16509 12883 c-13 -16 -12 -17 4 -4 16 13 21 21 13 21 -2 0 -10 -8
-17 -17z"/>
<path d="M15057 12858 c-17 -18 -16 -18 10 -12 35 8 33 7 19 19 -8 7 -16 5
-29 -7z"/>
<path d="M16576 12856 c-3 -14 -11 -26 -17 -26 -6 0 -9 7 -5 15 3 8 1 15 -4
15 -6 0 -10 -4 -10 -10 0 -5 -9 -14 -19 -19 -16 -9 -18 -8 -14 12 3 16 2 18
-5 9 -7 -11 -11 -10 -16 4 -9 24 -21 8 -21 -30 0 -26 6 -35 32 -48 27 -15 32
-15 37 -2 3 8 2 12 -3 9 -11 -6 -26 13 -17 22 3 3 12 0 21 -7 8 -7 22 -10 30
-6 8 3 16 1 16 -4 1 -6 2 -15 3 -22 0 -6 15 -13 31 -15 23 -3 26 -1 15 7 -13
8 -12 11 7 16 29 8 33 44 8 67 l-20 17 20 -6 c16 -5 17 -4 5 4 -18 13 -30 6
-30 -17 0 -23 -9 -31 -26 -24 -12 4 -11 8 3 19 17 12 17 14 2 29 -15 15 -17
15 -23 -9z m68 -41 c-6 -16 -24 -21 -24 -7 0 11 11 22 21 22 5 0 6 -7 3 -15z"/>
<path d="M15111 12854 c0 -11 3 -14 6 -6 3 7 2 16 -1 19 -3 4 -6 -2 -5 -13z"/>
<path d="M16399 12863 c-9 -59 0 -98 18 -79 4 5 2 11 -4 13 -7 3 -13 9 -13 14
0 15 22 10 36 -8 11 -14 13 -15 9 -2 -3 8 -1 28 4 42 10 26 9 27 -19 27 -17 0
-31 -3 -31 -7z"/>
<path d="M16215 12819 c-4 -6 -5 -12 -2 -15 2 -3 7 2 10 11 7 17 1 20 -8 4z"/>
<path d="M16438 12773 c7 -3 16 -2 19 1 4 3 -2 6 -13 5 -11 0 -14 -3 -6 -6z"/>
<path d="M16545 12770 c-3 -5 -2 -10 4 -10 5 0 13 5 16 10 3 6 2 10 -4 10 -5
0 -13 -4 -16 -10z"/>
<path d="M16190 12760 c-8 -5 -11 -13 -6 -17 5 -4 11 -2 13 5 4 10 8 10 21 0
15 -12 16 -11 3 5 -7 9 -14 17 -15 17 0 0 -8 -4 -16 -10z"/>
<path d="M16263 12737 c-3 -6 -1 -7 5 -3 5 3 12 1 14 -6 3 -8 6 -7 10 3 7 17
-19 22 -29 6z"/>
<path d="M16484 12719 c2 -17 -3 -36 -11 -45 -8 -7 -11 -14 -6 -14 14 0 43 39
46 62 1 13 -4 22 -15 23 -14 3 -17 -3 -14 -26z m17 -6 c-12 -20 -14 -14 -5 12
4 9 9 14 11 11 3 -2 0 -13 -6 -23z"/>
<path d="M16559 12728 c-11 -20 -10 -21 3 -11 8 7 18 10 22 6 4 -4 4 0 0 10
-8 22 -11 22 -25 -5z"/>
<path d="M16317 12733 c-12 -11 -7 -19 13 -20 11 -1 20 4 20 13 0 14 -21 19
-33 7z"/>
<path d="M16210 12720 c-12 -8 -10 -10 8 -10 13 0 20 4 17 10 -7 12 -6 12 -25
0z"/>
<path d="M16360 12700 c-12 -8 -9 -10 13 -10 15 0 27 5 27 10 0 13 -20 13 -40
0z"/>
<path d="M16410 12696 c0 -8 4 -17 9 -20 5 -4 7 3 4 14 -6 23 -13 26 -13 6z"/>
<path d="M16455 12701 c-3 -5 -2 -12 3 -15 5 -3 9 1 9 9 0 17 -3 19 -12 6z"/>
<path d="M16560 12679 c6 -11 15 -17 21 -14 16 11 10 31 -11 32 -17 2 -18 -1
-10 -18z"/>
<path d="M16113 12673 c-32 -7 -104 -12 -160 -13 -64 0 -104 -4 -109 -11 -4
-6 -13 -98 -20 -203 -7 -105 -17 -225 -23 -266 -6 -41 -15 -160 -21 -265 -6
-104 -19 -332 -29 -505 -10 -173 -19 -346 -20 -385 -1 -77 -47 -868 -56 -952
l-5 -53 255 0 255 0 0 43 c2 104 111 2010 125 2162 21 241 33 418 28 432 -10
28 -125 36 -220 16z"/>
<path d="M16530 12660 c0 -5 5 -10 11 -10 5 0 7 5 4 10 -3 6 -8 10 -11 10 -2
0 -4 -4 -4 -10z"/>
<path d="M21995 13274 c-121 -23 -220 -43 -221 -43 -2 -1 -15 -152 -20 -231
-2 -41 -9 -111 -14 -155 -18 -161 -42 -514 -36 -531 6 -16 8 -16 26 1 11 10
23 15 28 11 4 -4 -1 -13 -11 -21 -16 -11 -16 -13 -2 -19 9 -3 13 -2 10 4 -3 6
-2 10 3 10 4 0 19 21 31 48 12 26 34 70 48 97 15 28 34 66 44 85 29 56 231
473 298 615 34 72 66 138 71 147 21 37 23 37 -255 -18z"/>
<path d="M19414 12357 c1 -15 6 -30 9 -34 11 -10 8 30 -3 47 -7 11 -8 8 -6
-13z"/>
<path d="M19381 12324 c0 -11 3 -14 6 -6 3 7 2 16 -1 19 -3 4 -6 -2 -5 -13z"/>
<path d="M21696 12282 c-3 -4 4 -9 15 -9 23 -2 25 3 4 10 -8 4 -16 3 -19 -1z"/>
<path d="M21697 12253 c-4 -3 -7 -13 -7 -21 0 -18 13 -7 16 13 2 17 1 18 -9 8z"/>
<path d="M20369 12218 c-6 -26 -4 -35 7 -35 16 0 19 23 4 32 -5 3 -10 5 -11 3z"/>
<path d="M21710 12212 c0 -6 -6 -9 -12 -7 -9 4 -14 -8 -15 -37 l-2 -43 20 43
c11 24 18 46 15 50 -3 3 -6 0 -6 -6z"/>
<path d="M20517 12203 c-10 -3 -16 -10 -14 -16 6 -18 30 -14 33 6 1 9 2 16 1
16 -1 -1 -10 -3 -20 -6z"/>
<path d="M20830 12196 c0 -9 8 -12 27 -8 25 5 25 6 8 13 -29 11 -35 10 -35 -5z"/>
<path d="M20579 12191 c9 -6 10 -10 2 -12 -21 -7 -1 -37 20 -32 30 8 31 21 1
16 -24 -4 -25 -3 -8 8 15 9 16 13 5 20 -8 5 -18 9 -24 9 -5 0 -4 -4 4 -9z"/>
<path d="M20463 12171 c0 -11 5 -17 9 -15 11 7 10 34 -1 34 -6 0 -9 -9 -8 -19z"/>
<path d="M20770 12164 c-10 -11 -10 -14 -1 -14 7 0 10 -4 7 -9 -4 -5 1 -8 11
-7 20 3 26 33 8 40 -8 3 -19 -2 -25 -10z"/>
<path d="M20896 12155 c-9 -35 -1 -43 14 -15 8 14 8 26 2 32 -6 6 -12 0 -16
-17z"/>
<path d="M20854 12161 c4 -5 1 -11 -6 -13 -7 -3 -8 -7 -2 -11 5 -3 15 3 22 14
10 16 9 19 -4 19 -8 0 -13 -4 -10 -9z"/>
<path d="M20715 12140 c-3 -5 -1 -10 4 -10 6 0 11 5 11 10 0 6 -2 10 -4 10 -3
0 -8 -4 -11 -10z"/>
<path d="M20963 12122 c1 -14 5 -18 11 -12 7 7 6 14 -1 21 -9 9 -12 7 -10 -9z"/>
<path d="M22811 11953 c-11 -12 -11 -14 1 -11 7 2 14 -1 15 -7 0 -5 -3 -9 -9
-7 -5 1 -6 -2 -3 -8 4 -6 -1 -14 -12 -16 -10 -3 -20 -14 -20 -25 -2 -17 2 -15
24 10 27 30 52 31 54 2 0 -13 2 -13 6 -1 3 8 11 19 17 23 7 5 3 7 -9 5 -14 -2
-21 3 -23 19 -4 27 -23 35 -41 16z"/>
<path d="M22940 11900 c0 -5 5 -10 11 -10 5 0 7 5 4 10 -3 6 -8 10 -11 10 -2
0 -4 -4 -4 -10z"/>
<path d="M22833 11877 c0 -8 6 -14 14 -14 9 0 10 4 2 14 -6 7 -12 13 -14 13
-1 0 -2 -6 -2 -13z"/>
<path d="M12407 13342 c-16 -2 -26 -8 -24 -15 3 -7 10 -11 16 -9 6 1 11 -4 11
-10 0 -7 7 -2 16 10 19 27 18 29 -19 24z"/>
<path d="M12370 13303 c1 -19 17 -30 35 -23 19 7 19 7 -2 18 -25 14 -33 15
-33 5z"/>
<path d="M12174 13278 c-18 -10 -34 -14 -34 -8 0 5 -7 7 -15 3 -14 -5 -14 -8
2 -26 10 -11 12 -17 6 -13 -7 4 -13 2 -13 -4 0 -6 8 -10 18 -8 12 2 16 -3 14
-17 -2 -11 -1 -17 3 -13 3 3 7 13 9 21 1 8 8 22 15 31 7 9 10 16 5 17 -5 0 2
5 16 11 14 6 32 10 42 9 9 -1 19 2 22 8 11 16 -53 9 -90 -11z m6 -22 c0 -2 -8
-10 -17 -17 -16 -13 -17 -12 -4 4 13 16 21 21 21 13z"/>
<path d="M12283 13260 c-11 -24 -23 -38 -30 -35 -14 5 -18 -7 -6 -18 3 -4 15
0 25 9 15 14 20 15 34 4 13 -12 17 -11 24 0 5 8 7 17 4 19 -3 3 -9 -1 -13 -8
-6 -9 -10 -3 -13 18 -3 21 0 31 9 31 7 0 13 5 13 10 0 26 -32 6 -47 -30z"/>
<path d="M12430 13279 c0 -5 5 -7 10 -4 6 3 10 8 10 11 0 2 -4 4 -10 4 -5 0
-10 -5 -10 -11z"/>
<path d="M12351 13271 c-8 -5 -9 -11 -3 -15 5 -3 12 1 16 9 6 17 6 18 -13 6z"/>
<path d="M12069 13257 c-15 -11 -14 -14 7 -30 22 -17 23 -17 18 10 -6 34 -6
34 -25 20z"/>
<path d="M12213 13255 c-3 -9 -3 -18 -1 -21 3 -3 8 4 11 16 6 23 -1 27 -10 5z"/>
<path d="M12399 13253 c-13 -16 -12 -17 4 -4 16 13 21 21 13 21 -2 0 -10 -8
-17 -17z"/>
<path d="M12025 13240 c-3 -5 -1 -10 4 -10 6 0 11 5 11 10 0 6 -2 10 -4 10 -3
0 -8 -4 -11 -10z"/>
<path d="M12347 13227 c-8 -20 5 -33 31 -31 40 2 45 19 7 26 -11 1 -23 7 -26
11 -3 5 -9 2 -12 -6z"/>
<path d="M12481 13225 c0 -5 3 -16 8 -23 7 -11 9 -10 14 3 4 9 3 14 -2 10 -5
-3 -12 1 -14 7 -3 7 -6 9 -6 3z"/>
<path d="M12423 13205 c0 -8 4 -12 9 -9 5 3 6 10 3 15 -9 13 -12 11 -12 -6z"/>
<path d="M12515 13200 c-3 -5 -1 -10 5 -10 6 0 8 -4 5 -10 -9 -14 -16 -54 -8
-46 4 4 8 12 9 19 1 7 5 19 9 28 7 19 -10 35 -20 19z"/>
<path d="M12576 13175 c-3 -8 -1 -15 4 -15 6 0 10 7 10 15 0 8 -2 15 -4 15 -2
0 -6 -7 -10 -15z"/>
<path d="M8156 8438 c3 -5 10 -6 15 -3 13 9 11 12 -6 12 -8 0 -12 -4 -9 -9z"/>
<path d="M8390 8440 c0 -5 5 -10 11 -10 5 0 7 5 4 10 -3 6 -8 10 -11 10 -2 0
-4 -4 -4 -10z"/>
<path d="M8425 8440 c-3 -5 -1 -10 4 -10 6 0 11 5 11 10 0 6 -2 10 -4 10 -3 0
-8 -4 -11 -10z"/>
<path d="M11525 8410 c3 -5 8 -10 11 -10 2 0 4 5 4 10 0 6 -5 10 -11 10 -5 0
-7 -4 -4 -10z"/>
<path d="M12656 8398 c3 -5 10 -6 15 -3 13 9 11 12 -6 12 -8 0 -12 -4 -9 -9z"/>
<path d="M15395 8370 c-3 -5 1 -10 10 -10 9 0 13 5 10 10 -3 6 -8 10 -10 10
-2 0 -7 -4 -10 -10z"/>
<path d="M19378 8333 c7 -3 16 -2 19 1 4 3 -2 6 -13 5 -11 0 -14 -3 -6 -6z"/>
</g>
</svg>
